<svg width="200" height="50" viewBox="0 0 239 50" fill="none" xmlns="http://www.w3.org/2000/svg">
<path d="M41.784 11.888C41.784 13.232 41.28 14.648 40.272 16.136C39.312 17.624 38.04 19.112 36.456 20.6C34.92 22.04 33.216 23.432 31.344 24.776C29.52 26.12 27.744 27.344 26.016 28.448C27.408 29.264 28.512 30.368 29.328 31.76C30.144 33.104 30.552 34.76 30.552 36.728C30.552 38.6 30.048 40.328 29.04 41.912C28.032 43.448 26.736 44.768 25.152 45.872C23.568 47.024 21.792 47.912 19.824 48.536C17.904 49.16 16.008 49.496 14.136 49.544C11.544 49.448 9.528 48.632 8.088 47.096C6.696 45.56 6 43.784 6 41.768C6 41.048 6.312 39.776 6.936 37.952C7.56 36.08 8.352 33.968 9.312 31.616C10.272 29.264 11.328 26.816 12.48 24.272C13.632 21.68 14.712 19.328 15.72 17.216C16.776 15.104 17.688 13.376 18.456 12.032C19.272 10.64 19.8 9.944 20.04 9.944C20.808 9.944 21.456 10.112 21.984 10.448C22.56 10.784 23.04 11.192 23.424 11.672C23.808 12.104 24.096 12.584 24.288 13.112C24.48 13.592 24.576 14.024 24.576 14.408C24.576 14.456 24.408 14.792 24.072 15.416C23.784 16.04 23.352 16.856 22.776 17.864C22.248 18.872 21.624 20.024 20.904 21.32C20.232 22.616 19.536 24.008 18.816 25.496C20.64 24.92 22.704 24.056 25.008 22.904C27.312 21.704 29.472 20.384 31.488 18.944C33.504 17.456 35.208 15.944 36.6 14.408C37.992 12.872 38.688 11.48 38.688 10.232C38.688 9.08 38.328 8.168 37.608 7.496C36.936 6.824 36.144 6.344 35.232 6.056C34.368 5.72 33.504 5.528 32.64 5.48C31.776 5.384 31.2 5.336 30.912 5.336C28.944 5.336 26.928 5.672 24.864 6.344C22.8 6.968 20.784 7.808 18.816 8.864C16.896 9.872 15.072 11.024 13.344 12.32C11.616 13.568 10.104 14.864 8.808 16.208C7.512 17.504 6.504 18.752 5.784 19.952C5.016 21.104 4.632 22.088 4.632 22.904C4.632 23.576 4.728 24.08 4.92 24.416C5.064 24.752 5.232 25.016 5.424 25.208C5.616 25.352 5.808 25.472 6 25.568C6.144 25.664 6.216 25.832 6.216 26.072C6.216 26.456 5.928 26.648 5.352 26.648C4.92 26.648 4.416 26.528 3.84 26.288C3.264 26.048 2.712 25.688 2.184 25.208C1.656 24.68 1.2 24.032 0.816 23.264C0.432 22.496 0.24 21.584 0.24 20.528C0.24 18.8 1.08 16.808 2.76 14.552C4.44 12.296 6.624 10.16 9.312 8.144C12.048 6.08 15.096 4.352 18.456 2.96C21.864 1.52 25.296 0.799998 28.752 0.799998C31.008 0.799998 32.952 1.208 34.584 2.024C36.216 2.792 37.56 3.752 38.616 4.904C39.672 6.056 40.464 7.28 40.992 8.576C41.52 9.824 41.784 10.928 41.784 11.888ZM24 31.904C22.56 31.904 21.384 32.048 20.472 32.336C19.608 32.576 18.864 32.696 18.24 32.696C17.856 32.648 17.496 32.456 17.16 32.12C16.824 31.784 16.512 31.376 16.224 30.896C15.072 33.344 14.088 35.696 13.272 37.952C12.504 40.208 12.12 42.032 12.12 43.424C12.12 44.048 12.24 44.48 12.48 44.72C12.72 45.008 12.96 45.152 13.2 45.152C15.408 45.152 17.448 44.792 19.32 44.072C21.192 43.4 22.8 42.56 24.144 41.552C25.536 40.496 26.616 39.392 27.384 38.24C28.2 37.04 28.608 35.984 28.608 35.072C28.608 34.256 28.2 33.536 27.384 32.912C26.568 32.24 25.44 31.904 24 31.904ZM49.7535 30.032C49.9935 29.792 50.2095 29.672 50.4015 29.672C50.6895 29.672 50.9055 29.816 51.0495 30.104C51.2415 30.392 51.2175 30.704 50.9775 31.04C50.9295 31.136 50.6655 31.544 50.1855 32.264C49.7055 32.936 49.1055 33.752 48.3855 34.712C47.6655 35.672 46.8495 36.704 45.9375 37.808C45.0735 38.864 44.1615 39.872 43.2015 40.832C42.2895 41.744 41.3775 42.512 40.4655 43.136C39.5535 43.712 38.7135 44 37.9455 44C37.6575 44 37.2735 43.904 36.7935 43.712C36.3135 43.472 35.8575 43.16 35.4255 42.776C34.9455 42.392 34.5375 41.96 34.2015 41.48C33.8655 41 33.6975 40.52 33.6975 40.04C33.6975 39.512 33.8895 38.648 34.2735 37.448C34.6095 36.248 35.0655 34.904 35.6415 33.416C36.1695 31.928 36.7455 30.392 37.3695 28.808C38.0415 27.176 38.6655 25.712 39.2415 24.416C39.8655 23.072 40.4175 21.992 40.8975 21.176C41.3775 20.312 41.6895 19.88 41.8335 19.88C42.4095 19.88 43.0095 20.048 43.6335 20.384C44.2575 20.72 44.7855 21.128 45.2175 21.608C45.6495 22.04 45.9375 22.52 46.0815 23.048C46.2735 23.528 46.2255 23.912 45.9375 24.2C45.6495 24.488 45.2175 25.28 44.6415 26.576C44.0655 27.872 43.4655 29.312 42.8415 30.896C42.2175 32.432 41.6655 33.872 41.1855 35.216C40.7535 36.56 40.5375 37.424 40.5375 37.808C40.5375 38.144 40.6815 38.312 40.9695 38.312C41.5455 38.312 42.2895 37.928 43.2015 37.16C44.1135 36.392 45.0015 35.528 45.8655 34.568C46.7775 33.56 47.5935 32.624 48.3135 31.76C49.0815 30.848 49.5615 30.272 49.7535 30.032ZM48.9615 6.056C49.4895 6.056 50.0895 6.2 50.7615 6.488C51.4335 6.728 52.0095 7.064 52.4895 7.496C53.0175 7.88 53.4015 8.288 53.6415 8.72C53.8815 9.152 53.8335 9.536 53.4975 9.872C52.6335 10.736 51.8415 11.648 51.1215 12.608C50.4015 13.52 49.7535 14.384 49.1775 15.2C48.6015 15.968 48.0975 16.616 47.6655 17.144C47.2815 17.624 46.9695 17.864 46.7295 17.864C46.2015 17.864 45.6495 17.576 45.0735 17C44.4975 16.424 44.2095 15.872 44.2095 15.344C44.2095 14.816 44.3535 14.048 44.6415 13.04C44.9775 11.984 45.3855 10.952 45.8655 9.944C46.3455 8.888 46.8495 7.976 47.3775 7.208C47.9535 6.44 48.4815 6.056 48.9615 6.056ZM73.5664 30.032C73.7584 29.792 73.9984 29.672 74.2864 29.672C74.5744 29.672 74.7904 29.816 74.9344 30.104C75.0784 30.392 75.0304 30.704 74.7904 31.04C74.7424 31.136 74.4784 31.544 73.9984 32.264C73.5184 32.936 72.9184 33.752 72.1984 34.712C71.5264 35.672 70.7344 36.704 69.8224 37.808C68.9104 38.864 67.9744 39.872 67.0144 40.832C66.1024 41.744 65.1904 42.512 64.2784 43.136C63.4144 43.712 62.5984 44 61.8304 44C60.6304 44 59.5744 43.736 58.6624 43.208C57.7504 42.632 56.9584 41.96 56.2864 41.192C55.6624 40.376 55.1344 39.56 54.7024 38.744C54.3184 37.88 54.0064 37.16 53.7664 36.584C53.6704 36.824 53.5504 37.064 53.4064 37.304C53.3104 37.496 53.2144 37.712 53.1184 37.952C52.7344 39.056 52.3984 39.992 52.1104 40.76C51.8704 41.528 51.7024 42.128 51.6064 42.56L51.5344 43.136C51.5344 43.712 51.2704 44 50.7424 44C50.4064 44 49.9984 43.88 49.5184 43.64C48.9904 43.352 48.5104 43.016 48.0784 42.632C47.5984 42.248 47.2144 41.84 46.9264 41.408C46.5904 40.928 46.4224 40.472 46.4224 40.04C46.4224 39.368 46.7584 38.072 47.4304 36.152C48.0544 34.184 48.8704 31.952 49.8784 29.456C50.8864 26.912 51.9904 24.272 53.1904 21.536C54.4384 18.752 55.6384 16.208 56.7904 13.904C57.9424 11.6 58.9744 9.704 59.8864 8.216C60.8464 6.728 61.5184 5.984 61.9024 5.984C62.4784 5.984 63.0784 6.152 63.7024 6.488C64.3264 6.824 64.8544 7.232 65.2864 7.712C65.7184 8.144 66.0064 8.624 66.1504 9.152C66.3424 9.632 66.2944 10.016 66.0064 10.304C65.5264 10.784 64.9744 11.528 64.3504 12.536C63.7744 13.544 63.1264 14.744 62.4064 16.136C61.7344 17.48 61.0144 18.968 60.2464 20.6C59.5264 22.184 58.8064 23.816 58.0864 25.496C59.7664 23.432 61.4464 21.68 63.1264 20.24C64.8544 18.8 66.3664 18.08 67.6624 18.08C68.0944 18.08 68.5744 18.272 69.1024 18.656C69.6304 18.992 70.1104 19.448 70.5424 20.024C70.9744 20.6 71.3344 21.224 71.6224 21.896C71.9584 22.568 72.1264 23.24 72.1264 23.912C72.1264 24.92 71.6944 25.928 70.8304 26.936C70.0144 27.896 68.9344 28.808 67.5904 29.672C66.2464 30.536 64.7824 31.304 63.1984 31.976C61.6144 32.6 60.0544 33.056 58.5184 33.344C58.5184 33.728 58.5424 34.304 58.5904 35.072C58.6864 35.792 58.8544 36.536 59.0944 37.304C59.3344 38.024 59.6704 38.672 60.1024 39.248C60.5344 39.776 61.1104 40.04 61.8304 40.04C62.7904 40.04 63.8944 39.56 65.1424 38.6C66.4384 37.64 67.6864 36.584 68.8864 35.432C70.0864 34.232 71.1184 33.104 71.9824 32.048C72.8464 30.944 73.3744 30.272 73.5664 30.032ZM67.0144 20.6C66.5344 20.6 65.9344 20.864 65.2144 21.392C64.4944 21.872 63.7264 22.544 62.9104 23.408C62.0944 24.272 61.2304 25.28 60.3184 26.432C59.4544 27.584 58.5904 28.784 57.7264 30.032C59.1664 29.648 60.5104 29.096 61.7584 28.376C63.0064 27.656 64.0624 26.888 64.9264 26.072C65.8384 25.256 66.5344 24.44 67.0144 23.624C67.5424 22.76 67.8064 21.992 67.8064 21.32C67.8064 20.984 67.7104 20.792 67.5184 20.744C67.3744 20.648 67.2064 20.6 67.0144 20.6ZM92.5783 30.032C92.7703 29.792 92.9863 29.672 93.2263 29.672C93.5143 29.672 93.7303 29.816 93.8743 30.104C94.0183 30.392 93.9703 30.704 93.7303 31.04C92.8183 32.288 91.7623 33.68 90.5623 35.216C89.4103 36.704 88.1383 38.096 86.7463 39.392C85.4023 40.688 83.9623 41.792 82.4263 42.704C80.8903 43.568 79.2823 44 77.6023 44C77.2663 44 76.7143 43.88 75.9463 43.64C75.1783 43.352 74.4103 42.944 73.6423 42.416C72.9223 41.888 72.2743 41.216 71.6983 40.4C71.1223 39.584 70.8343 38.648 70.8343 37.592C70.8343 36.056 71.3383 34.28 72.3463 32.264C73.3543 30.2 74.5543 28.256 75.9463 26.432C77.3383 24.608 78.7303 23.072 80.1223 21.824C81.5623 20.528 82.6903 19.88 83.5063 19.88C84.2743 19.88 85.0423 20.12 85.8103 20.6C86.5783 21.032 87.2743 21.56 87.8983 22.184C88.5223 22.808 89.0263 23.456 89.4103 24.128C89.8423 24.8 90.0583 25.352 90.0583 25.784C90.0583 26.648 89.6743 27.656 88.9063 28.808C88.1383 29.96 87.1783 31.064 86.0263 32.12C84.9223 33.176 83.7463 34.088 82.4983 34.856C81.2983 35.576 80.2423 35.936 79.3303 35.936C78.8023 35.936 78.3463 35.816 77.9623 35.576C77.5303 36.776 77.3143 37.88 77.3143 38.888C77.3143 39.848 77.7943 40.328 78.7543 40.328C79.8583 40.328 81.0103 40.016 82.2103 39.392C83.4583 38.72 84.6823 37.88 85.8823 36.872C87.1303 35.864 88.3303 34.76 89.4823 33.56C90.6343 32.312 91.6663 31.136 92.5783 30.032ZM86.4583 24.848C85.8343 24.848 85.1623 25.112 84.4423 25.64C83.7703 26.12 83.0743 26.768 82.3543 27.584C81.6823 28.4 81.0343 29.336 80.4103 30.392C79.7863 31.4 79.2343 32.432 78.7543 33.488C79.5703 33.2 80.4583 32.72 81.4183 32.048C82.3783 31.376 83.2903 30.656 84.1543 29.888C85.0183 29.072 85.7383 28.28 86.3143 27.512C86.8903 26.696 87.1783 26 87.1783 25.424C87.1783 25.04 86.9383 24.848 86.4583 24.848ZM108.683 30.032C108.875 29.792 109.091 29.672 109.331 29.672C109.619 29.672 109.835 29.816 109.979 30.104C110.171 30.392 110.147 30.704 109.907 31.04C108.035 34.112 105.923 36.44 103.571 38.024C103.331 38.936 102.875 39.8 102.203 40.616C101.531 41.384 100.763 42.08 99.8987 42.704C99.0347 43.28 98.1467 43.736 97.2347 44.072C96.3227 44.408 95.4587 44.576 94.6427 44.576C94.1627 44.576 93.6107 44.432 92.9867 44.144C92.4107 43.904 91.8827 43.568 91.4027 43.136C90.8747 42.704 90.4427 42.224 90.1067 41.696C89.7707 41.168 89.6027 40.64 89.6027 40.112C89.6027 39.68 89.7227 39.368 89.9627 39.176C90.2027 38.984 90.4427 38.888 90.6827 38.888C90.8747 38.888 91.0427 38.936 91.1867 39.032C91.2827 39.08 91.3787 39.152 91.4747 39.248C91.5707 39.344 91.6907 39.44 91.8347 39.536C91.9307 39.632 92.0987 39.68 92.3387 39.68C92.5307 39.68 93.0347 39.632 93.8507 39.536C94.6667 39.44 95.4827 39.152 96.2987 38.672C95.9147 38.288 95.7227 37.808 95.7227 37.232C95.7227 36.656 95.9147 36.176 96.2987 35.792C96.7307 35.36 97.2347 35.144 97.8107 35.144C97.9067 35.144 97.9787 35.168 98.0267 35.216C97.9787 34.4 97.8347 33.296 97.5947 31.904C97.4027 30.512 97.1867 28.88 96.9467 27.008C96.3227 27.68 95.6987 28.448 95.0747 29.312L93.7787 31.04C93.5867 31.28 93.3707 31.4 93.1307 31.4C92.8427 31.4 92.6267 31.256 92.4827 30.968C92.2907 30.68 92.3147 30.368 92.5547 30.032L93.7067 28.52C94.2347 27.704 94.7147 26.888 95.1467 26.072C95.5307 25.352 95.8667 24.584 96.1547 23.768C96.4427 22.904 96.5867 22.112 96.5867 21.392V20.24C96.5867 19.136 96.9707 18.2 97.7387 17.432C98.5067 16.664 99.2267 16.28 99.8987 16.28C100.331 16.28 100.739 16.4 101.123 16.64C101.555 16.832 101.915 17.072 102.203 17.36C102.491 17.648 102.683 17.96 102.779 18.296C102.875 18.584 102.803 18.848 102.563 19.088C102.179 19.52 101.747 20 101.267 20.528C100.787 21.008 100.547 21.776 100.547 22.832C100.547 23.888 100.667 24.944 100.907 26C101.195 27.056 101.507 28.112 101.843 29.168C102.179 30.176 102.515 31.184 102.851 32.192C103.187 33.152 103.427 34.112 103.571 35.072C104.435 34.496 105.275 33.776 106.091 32.912C106.955 32 107.819 31.04 108.683 30.032ZM115.642 16.784C115.642 15.824 116.17 14.696 117.226 13.4C118.282 12.104 119.674 10.88 121.402 9.728C123.13 8.528 125.074 7.52 127.234 6.704C129.394 5.888 131.578 5.48 133.786 5.48C135.274 5.48 136.594 6.008 137.746 7.064C138.946 8.072 139.546 9.536 139.546 11.456C139.546 12.896 139.114 14.336 138.25 15.776C137.434 17.168 136.306 18.608 134.866 20.096C133.474 21.536 131.866 23.024 130.042 24.56C128.266 26.096 126.418 27.704 124.498 29.384C122.578 31.016 120.658 32.744 118.738 34.568C116.866 36.392 115.162 38.312 113.626 40.328C116.074 39.848 118.378 39.44 120.538 39.104C122.41 38.768 124.258 38.48 126.082 38.24C127.906 38 129.274 37.88 130.186 37.88C130.666 37.88 131.098 38.096 131.482 38.528C131.914 38.912 132.274 39.392 132.562 39.968C132.898 40.496 133.138 41.048 133.282 41.624C133.474 42.2 133.57 42.68 133.57 43.064C133.57 43.304 133.498 43.52 133.354 43.712C133.21 43.904 133.018 44 132.778 44C132.586 44 132.37 43.928 132.13 43.784C131.698 43.448 131.29 43.16 130.906 42.92C130.522 42.632 129.778 42.488 128.674 42.488C127.81 42.488 126.514 42.584 124.786 42.776C123.106 42.92 121.378 43.088 119.602 43.28C117.874 43.424 116.314 43.592 114.922 43.784C113.53 43.928 112.738 44 112.546 44C112.21 44 111.826 43.88 111.394 43.64C110.962 43.4 110.53 43.064 110.098 42.632C109.714 42.2 109.378 41.696 109.09 41.12C108.85 40.496 108.73 39.848 108.73 39.176C108.73 38.408 109.378 37.256 110.674 35.72C112.018 34.184 113.674 32.456 115.642 30.536C117.658 28.568 119.818 26.528 122.122 24.416C124.426 22.304 126.562 20.288 128.53 18.368C130.546 16.448 132.202 14.72 133.498 13.184C134.842 11.6 135.514 10.424 135.514 9.656C135.514 8.984 135.37 8.552 135.082 8.36C134.842 8.12 134.53 8 134.146 8C132.898 8 131.506 8.408 129.97 9.224C128.482 9.992 127.09 10.976 125.794 12.176C124.498 13.328 123.394 14.576 122.482 15.92C121.618 17.264 121.186 18.488 121.186 19.592C121.186 20.312 121.258 20.744 121.402 20.888C121.594 20.984 121.69 21.224 121.69 21.608C121.69 21.896 121.426 22.04 120.898 22.04C120.466 22.04 119.938 21.944 119.314 21.752C118.738 21.512 118.162 21.176 117.586 20.744C117.058 20.312 116.602 19.784 116.218 19.16C115.834 18.488 115.642 17.696 115.642 16.784ZM158.93 5.48C159.89 5.48 160.898 5.72 161.954 6.2C163.01 6.68 163.97 7.4 164.834 8.36C165.746 9.272 166.49 10.424 167.066 11.816C167.642 13.208 167.93 14.84 167.93 16.712C167.93 18.392 167.69 20.24 167.21 22.256C166.73 24.272 166.058 26.288 165.194 28.304C164.33 30.32 163.322 32.288 162.17 34.208C161.018 36.08 159.746 37.76 158.354 39.248C156.962 40.688 155.498 41.84 153.962 42.704C152.474 43.568 150.938 44 149.354 44C148.394 44 147.266 43.76 145.97 43.28C144.674 42.8 143.45 42.08 142.298 41.12C141.146 40.16 140.162 38.984 139.346 37.592C138.53 36.152 138.122 34.496 138.122 32.624C138.122 31.136 138.386 29.576 138.914 27.944C139.442 26.264 140.114 24.656 140.93 23.12C141.794 21.536 142.73 20.096 143.738 18.8C144.746 17.456 145.73 16.352 146.69 15.488C147.41 14.144 148.274 12.872 149.282 11.672C150.29 10.472 151.346 9.416 152.45 8.504C153.602 7.592 154.73 6.872 155.834 6.344C156.938 5.768 157.97 5.48 158.93 5.48ZM146.186 40.472C147.386 40.472 148.61 40.016 149.858 39.104C151.154 38.192 152.426 36.992 153.674 35.504C154.922 34.016 156.098 32.312 157.202 30.392C158.354 28.472 159.362 26.504 160.226 24.488C161.09 22.472 161.762 20.48 162.242 18.512C162.77 16.544 163.034 14.768 163.034 13.184C163.034 11.936 162.77 10.856 162.242 9.944C161.762 9.032 160.922 8.576 159.722 8.576C159.098 8.576 158.066 9.032 156.626 9.944C155.234 10.856 153.794 12.416 152.306 14.624C152.834 14.912 153.266 15.272 153.602 15.704C153.986 16.136 154.25 16.544 154.394 16.928C154.538 17.312 154.562 17.648 154.466 17.936C154.418 18.176 154.25 18.296 153.962 18.296C153.194 18.296 152.234 18.872 151.082 20.024C149.93 21.128 148.802 22.616 147.698 24.488C146.642 26.312 145.706 28.376 144.89 30.68C144.122 32.984 143.738 35.312 143.738 37.664C143.738 38.48 143.93 39.152 144.314 39.68C144.746 40.208 145.37 40.472 146.186 40.472ZM189.165 5.48C190.125 5.48 191.133 5.72 192.189 6.2C193.245 6.68 194.205 7.4 195.069 8.36C195.981 9.272 196.725 10.424 197.301 11.816C197.877 13.208 198.165 14.84 198.165 16.712C198.165 18.392 197.925 20.24 197.445 22.256C196.965 24.272 196.293 26.288 195.429 28.304C194.565 30.32 193.557 32.288 192.405 34.208C191.253 36.08 189.981 37.76 188.589 39.248C187.197 40.688 185.733 41.84 184.197 42.704C182.709 43.568 181.173 44 179.589 44C178.629 44 177.501 43.76 176.205 43.28C174.909 42.8 173.685 42.08 172.533 41.12C171.381 40.16 170.397 38.984 169.581 37.592C168.765 36.152 168.357 34.496 168.357 32.624C168.357 31.136 168.621 29.576 169.149 27.944C169.677 26.264 170.349 24.656 171.165 23.12C172.029 21.536 172.965 20.096 173.973 18.8C174.981 17.456 175.965 16.352 176.925 15.488C177.645 14.144 178.509 12.872 179.517 11.672C180.525 10.472 181.581 9.416 182.685 8.504C183.837 7.592 184.965 6.872 186.069 6.344C187.173 5.768 188.205 5.48 189.165 5.48ZM176.421 40.472C177.621 40.472 178.845 40.016 180.093 39.104C181.389 38.192 182.661 36.992 183.909 35.504C185.157 34.016 186.333 32.312 187.437 30.392C188.589 28.472 189.597 26.504 190.461 24.488C191.325 22.472 191.997 20.48 192.477 18.512C193.005 16.544 193.269 14.768 193.269 13.184C193.269 11.936 193.005 10.856 192.477 9.944C191.997 9.032 191.157 8.576 189.957 8.576C189.333 8.576 188.301 9.032 186.861 9.944C185.469 10.856 184.029 12.416 182.541 14.624C183.069 14.912 183.501 15.272 183.837 15.704C184.221 16.136 184.485 16.544 184.629 16.928C184.773 17.312 184.797 17.648 184.701 17.936C184.653 18.176 184.485 18.296 184.197 18.296C183.429 18.296 182.469 18.872 181.317 20.024C180.165 21.128 179.037 22.616 177.933 24.488C176.877 26.312 175.941 28.376 175.125 30.68C174.357 32.984 173.973 35.312 173.973 37.664C173.973 38.48 174.165 39.152 174.549 39.68C174.981 40.208 175.605 40.472 176.421 40.472ZM219.399 5.48C220.359 5.48 221.367 5.72 222.423 6.2C223.479 6.68 224.439 7.4 225.303 8.36C226.215 9.272 226.959 10.424 227.535 11.816C228.111 13.208 228.399 14.84 228.399 16.712C228.399 18.392 228.159 20.24 227.679 22.256C227.199 24.272 226.527 26.288 225.663 28.304C224.799 30.32 223.791 32.288 222.639 34.208C221.487 36.08 220.215 37.76 218.823 39.248C217.431 40.688 215.967 41.84 214.431 42.704C212.943 43.568 211.407 44 209.823 44C208.863 44 207.735 43.76 206.439 43.28C205.143 42.8 203.919 42.08 202.767 41.12C201.615 40.16 200.631 38.984 199.815 37.592C198.999 36.152 198.591 34.496 198.591 32.624C198.591 31.136 198.855 29.576 199.383 27.944C199.911 26.264 200.583 24.656 201.399 23.12C202.263 21.536 203.199 20.096 204.207 18.8C205.215 17.456 206.199 16.352 207.159 15.488C207.879 14.144 208.743 12.872 209.751 11.672C210.759 10.472 211.815 9.416 212.919 8.504C214.071 7.592 215.199 6.872 216.303 6.344C217.407 5.768 218.439 5.48 219.399 5.48ZM206.655 40.472C207.855 40.472 209.079 40.016 210.327 39.104C211.623 38.192 212.895 36.992 214.143 35.504C215.391 34.016 216.567 32.312 217.671 30.392C218.823 28.472 219.831 26.504 220.695 24.488C221.559 22.472 222.231 20.48 222.711 18.512C223.239 16.544 223.503 14.768 223.503 13.184C223.503 11.936 223.239 10.856 222.711 9.944C222.231 9.032 221.391 8.576 220.191 8.576C219.567 8.576 218.535 9.032 217.095 9.944C215.703 10.856 214.263 12.416 212.775 14.624C213.303 14.912 213.735 15.272 214.071 15.704C214.455 16.136 214.719 16.544 214.863 16.928C215.007 17.312 215.031 17.648 214.935 17.936C214.887 18.176 214.719 18.296 214.431 18.296C213.663 18.296 212.703 18.872 211.551 20.024C210.399 21.128 209.271 22.616 208.167 24.488C207.111 26.312 206.175 28.376 205.359 30.68C204.591 32.984 204.207 35.312 204.207 37.664C204.207 38.48 204.399 39.152 204.783 39.68C205.215 40.208 205.839 40.472 206.655 40.472ZM234.441 37.808C234.585 37.76 234.801 37.736 235.089 37.736C235.521 37.736 235.977 37.856 236.457 38.096C236.937 38.288 237.345 38.552 237.681 38.888C238.017 39.176 238.257 39.488 238.401 39.824C238.593 40.112 238.617 40.352 238.473 40.544C236.889 42.848 235.785 44 235.161 44C234.585 44 234.009 43.904 233.433 43.712C232.905 43.472 232.641 43.04 232.641 42.416C232.641 42.08 232.689 41.672 232.785 41.192C232.881 40.712 233.001 40.232 233.145 39.752C233.289 39.272 233.457 38.84 233.649 38.456C233.889 38.072 234.153 37.856 234.441 37.808Z" fill="#383838"/>
</svg>
