<svg width="49" height="44" viewBox="0 0 49 44" fill="none" xmlns="http://www.w3.org/2000/svg">
<path d="M14.1644 33.8795C12.0236 33.7695 12.064 30.7386 14.1643 30.6333C20.114 30.6541 35.8067 30.6389 41.9456 30.6432C43.6247 30.6432 45.0612 29.4931 45.4388 27.8465L48.9247 12.6525C49.1243 11.7825 48.9228 10.8821 48.3721 10.1823C47.8213 9.48242 46.9967 9.07539 46.1098 9.07539C43.6402 9.07539 22.6772 8.97987 11.94 8.93679L10.238 2.58C9.82944 1.06089 8.45221 0 6.88874 0H1.43631C0.643084 0 0 0.647313 0 1.44575C0 2.2442 0.643084 2.89151 1.43631 2.89151H6.88874C7.1579 2.89151 7.39489 3.07416 7.46489 3.3341L14.0015 27.7458C12.8522 27.7878 11.7817 28.2583 10.9699 29.0874C10.1169 29.9587 9.6588 31.1121 9.67997 32.3351C9.72229 34.781 11.734 36.7709 14.1644 36.7709H16.2587C15.9474 37.4287 15.7727 38.164 15.7727 38.9397C15.7727 41.73 18.0279 44 20.8 44C23.5721 44 25.8273 41.73 25.8273 38.9397C25.8273 38.1639 25.6524 37.4287 25.3411 36.7709H34.4105C34.0995 37.4285 33.9248 38.1634 33.9248 38.9389C33.9248 41.7292 36.1801 43.9992 38.9521 43.9992C41.7241 43.9992 43.9794 41.7291 43.9794 38.9389C43.9794 38.1332 43.7904 37.3714 43.4562 36.6946C44.0246 36.5019 44.4345 35.9623 44.4345 35.3253C44.4345 34.5268 43.7914 33.8795 42.9981 33.8795H14.1644ZM22.9545 38.9398C22.9545 40.1357 21.988 41.1086 20.7999 41.1086C19.6118 41.1086 18.6452 40.1357 18.6452 38.9398C18.6452 37.7445 19.6108 36.772 20.7981 36.771H20.8017C21.989 36.772 22.9545 37.7445 22.9545 38.9398ZM38.9522 41.1078C37.7641 41.1078 36.7975 40.1348 36.7975 38.939C36.7975 37.7549 37.7453 36.79 38.9172 36.771H38.9872C40.1592 36.79 41.107 37.7549 41.107 38.939C41.1069 40.1348 40.1403 41.1078 38.9522 41.1078ZM46.1203 11.9775C46.1288 11.9883 46.1276 11.9934 46.1258 12.0017L44.657 18.404H39.6833L40.5303 11.9441L46.0983 11.9666C46.1068 11.9668 46.1119 11.9668 46.1203 11.9775ZM31.3124 27.7516V21.2955H36.4067L35.5603 27.7516H31.3124ZM24.1901 27.7516L23.3367 21.2955H28.4398V27.7516H24.1901ZM17.5779 27.7516H17.5734C17.2234 27.7515 16.9149 27.5139 16.8239 27.1753L15.2495 21.2955H20.4387L21.2921 27.7516H17.5779ZM22.9544 18.4041L22.0906 11.8694L28.4397 11.8951V18.4041H22.9544ZM31.3124 18.4041V11.9068L37.6343 11.9324L36.7858 18.4041H31.3124ZM19.1911 11.8575L20.0564 18.404H14.4752L12.7153 11.8312L19.1911 11.8575ZM41.9456 27.7516H38.4577L39.3042 21.2955H43.9935L42.6398 27.1958C42.5648 27.5231 42.2793 27.7516 41.9456 27.7516Z" fill="black"/>
</svg>
